<svg width="31" height="32" viewBox="0 0 31 32" fill="none" xmlns="http://www.w3.org/2000/svg">
<path d="M0 18.7851V13.7288C0 12.1291 1.03585 11.3292 3.10756 11.3292H8.04636L9.28568 12.072V13.1861H3.21854C2.84859 13.1861 2.66362 13.3289 2.66362 13.6146V18.8994C2.66362 19.1851 2.84859 19.3279 3.21854 19.3279H9.28568V20.442L8.04636 21.1847H3.10756C1.03585 21.1847 0 20.3849 0 18.7851Z" fill="white"/>
<path d="M11.1728 20.442V19.3279H16.907C17.277 19.3279 17.4619 19.1851 17.4619 18.8994V17.871C17.4619 17.5949 17.3078 17.4377 16.9995 17.3997L13.3925 16.8283C11.9127 16.5998 11.1728 15.8332 11.1728 14.5287V13.7288C11.1728 12.1291 12.2087 11.3292 14.2804 11.3292H18.5163L19.7556 12.072V13.1861H14.3914C14.0214 13.1861 13.8365 13.3289 13.8365 13.6146V14.543C13.8365 14.8096 13.9906 14.9667 14.2989 15.0143L17.9059 15.5714C19.3857 15.7999 20.1256 16.5665 20.1256 17.871V18.7851C20.1256 20.3849 19.0897 21.1847 17.018 21.1847H12.4122L11.1728 20.442Z" fill="white"/>
<path d="M22.0473 20.442V19.3279H27.7815C28.1514 19.3279 28.3364 19.1851 28.3364 18.8994V17.871C28.3364 17.5949 28.1822 17.4377 27.8739 17.3997L24.267 16.8283C22.7872 16.5998 22.0473 15.8332 22.0473 14.5287V13.7288C22.0473 12.1291 23.0831 11.3292 25.1548 11.3292H29.3907L30.6301 12.072V13.1861H25.2658C24.8959 13.1861 24.7109 13.3289 24.7109 13.6146V14.543C24.7109 14.8096 24.865 14.9667 25.1733 15.0143L28.7803 15.5714C30.2601 15.7999 31 16.5665 31 17.871V18.7851C31 20.3849 29.9641 21.1847 27.8924 21.1847H23.2866L22.0473 20.442Z" fill="white"/>
<path d="M3.9422 31.7278L13.9897 25.9269C14.6248 25.5602 14.3647 24.5894 13.6314 24.5894L3.58382 24.5894C3.18796 24.5894 2.86705 24.9103 2.86705 25.3061L2.86705 31.1071C2.86705 31.6588 3.46436 32.0037 3.9422 31.7278Z" fill="white"/>
<path d="M3.9422 1.01934L13.9897 6.82029C14.6248 7.18695 14.3647 8.15779 13.6314 8.15779H3.58382C3.18796 8.15779 2.86705 7.83688 2.86705 7.44103L2.86705 1.64007C2.86705 1.08831 3.46436 0.743456 3.9422 1.01934Z" fill="white"/>
<path d="M17.3815 2.3697C17.3815 1.57799 17.9832 0.936175 18.7254 0.936175H19.5654C20.3076 0.936175 20.9093 1.57799 20.9093 2.3697V6.67028C20.9093 7.46199 20.3076 8.10381 19.5654 8.10381H18.7254C17.9832 8.10381 17.3815 7.46199 17.3815 6.67028V2.3697Z" fill="white"/>
<path d="M24.6051 2.3697C24.6051 1.57799 25.2068 0.936175 25.9491 0.936175H26.789C27.5313 0.936175 28.1329 1.57799 28.1329 2.3697V6.67028C28.1329 7.46199 27.5313 8.10381 26.789 8.10381H25.9491C25.2068 8.10381 24.6051 7.46199 24.6051 6.67028V2.3697Z" fill="white"/>
<path d="M17.3815 26.0229C17.3815 25.2312 17.9832 24.5894 18.7254 24.5894H19.5654C20.3076 24.5894 20.9093 25.2312 20.9093 26.0229V30.3235C20.9093 31.1152 20.3076 31.757 19.5654 31.757H18.7254C17.9832 31.757 17.3815 31.1152 17.3815 30.3235V26.0229Z" fill="white"/>
<path d="M24.6051 26.0229C24.6051 25.2312 25.2068 24.5894 25.9491 24.5894H26.789C27.5313 24.5894 28.1329 25.2312 28.1329 26.0229V30.3235C28.1329 31.1152 27.5313 31.757 26.789 31.757H25.9491C25.2068 31.757 24.6051 31.1152 24.6051 30.3235V26.0229Z" fill="white"/>
</svg>
